<?xml version="1.0" encoding="UTF-8"?>
<!--Generator: Apple Native CoreSVG 341-->
<!DOCTYPE svg
PUBLIC "-//W3C//DTD SVG 1.1//EN"
       "http://www.w3.org/Graphics/SVG/1.1/DTD/svg11.dtd">
<svg version="1.1" xmlns="http://www.w3.org/2000/svg" xmlns:xlink="http://www.w3.org/1999/xlink" viewBox="0 0 3300 2200">
 <!--glyph: "", point size: 100.0, font version: "21.0d6e2", template writer version: "138.0.0"-->
 <style>.defaults {-sfsymbols-draw-reverses-motion-groups:true}

.monochrome-0 {-sfsymbols-motion-group:1;-sfsymbols-layer-tags:-474481e64b4e7885 _enclosure.stroke viewfinder}
.monochrome-1 {-sfsymbols-motion-group:0;-sfsymbols-always-pulses:true;-sfsymbols-layer-tags:-474481e64b4e7885 41c13fd5c6233cd5 sofa}

.multicolor-0:tintColor {-sfsymbols-motion-group:1;-sfsymbols-layer-tags:-474481e64b4e7885 _enclosure.stroke viewfinder}
.multicolor-1:tintColor {-sfsymbols-motion-group:0;-sfsymbols-always-pulses:true;-sfsymbols-layer-tags:-474481e64b4e7885 41c13fd5c6233cd5 sofa}

.hierarchical-0:secondary {-sfsymbols-motion-group:1;-sfsymbols-layer-tags:-474481e64b4e7885 _enclosure.stroke viewfinder}
.hierarchical-1:primary {-sfsymbols-motion-group:0;-sfsymbols-always-pulses:true;-sfsymbols-layer-tags:-474481e64b4e7885 41c13fd5c6233cd5 sofa}

.SFSymbolsPreviewWireframe {fill:none;opacity:1.0;stroke:black;stroke-width:0.5}
</style>
 <g id="Notes">
  <rect height="2200" id="artboard" style="fill:white;opacity:1" width="3300" x="0" y="0"/>
  <line style="fill:none;stroke:black;opacity:1;stroke-width:0.5;" x1="263" x2="3036" y1="292" y2="292"/>
  <text style="stroke:none;fill:black;font-family:sans-serif;font-size:13;font-weight:bold;" transform="matrix(1 0 0 1 263 322)">Weight/Scale Variations</text>
  <text style="stroke:none;fill:black;font-family:sans-serif;font-size:13;text-anchor:middle;" transform="matrix(1 0 0 1 559.711 322)">Ultralight</text>
  <text style="stroke:none;fill:black;font-family:sans-serif;font-size:13;text-anchor:middle;" transform="matrix(1 0 0 1 856.422 322)">Thin</text>
  <text style="stroke:none;fill:black;font-family:sans-serif;font-size:13;text-anchor:middle;" transform="matrix(1 0 0 1 1153.13 322)">Light</text>
  <text style="stroke:none;fill:black;font-family:sans-serif;font-size:13;text-anchor:middle;" transform="matrix(1 0 0 1 1449.84 322)">Regular</text>
  <text style="stroke:none;fill:black;font-family:sans-serif;font-size:13;text-anchor:middle;" transform="matrix(1 0 0 1 1746.56 322)">Medium</text>
  <text style="stroke:none;fill:black;font-family:sans-serif;font-size:13;text-anchor:middle;" transform="matrix(1 0 0 1 2043.27 322)">Semibold</text>
  <text style="stroke:none;fill:black;font-family:sans-serif;font-size:13;text-anchor:middle;" transform="matrix(1 0 0 1 2339.98 322)">Bold</text>
  <text style="stroke:none;fill:black;font-family:sans-serif;font-size:13;text-anchor:middle;" transform="matrix(1 0 0 1 2636.69 322)">Heavy</text>
  <text style="stroke:none;fill:black;font-family:sans-serif;font-size:13;text-anchor:middle;" transform="matrix(1 0 0 1 2933.4 322)">Black</text>
  <line style="fill:none;stroke:black;opacity:1;stroke-width:0.5;" x1="263" x2="3036" y1="1903" y2="1903"/>
  <g transform="matrix(0.2 0 0 0.2 263 1933)">
   <path d="m46.2402 4.15039c21.7773 0 39.4531-17.627 39.4531-39.4043s-17.6758-39.4043-39.4531-39.4043c-21.7285 0-39.4043 17.627-39.4043 39.4043s17.6758 39.4043 39.4043 39.4043Zm0-7.42188c-17.6758 0-31.9336-14.3066-31.9336-31.9824s14.2578-31.9824 31.9336-31.9824 31.9824 14.3066 31.9824 31.9824-14.3066 31.9824-31.9824 31.9824Zm3.61328-17.7734v-28.4668c0-2.24609-1.46484-3.75977-3.71094-3.75977-2.14844 0-3.61328 1.51367-3.61328 3.75977v28.4668c0 2.19727 1.46484 3.71094 3.61328 3.71094 2.24609 0 3.71094-1.51367 3.71094-3.71094Zm-17.8223-10.5957h28.418c2.19727 0 3.71094-1.46484 3.71094-3.61328 0-2.19727-1.51367-3.71094-3.71094-3.71094h-28.418c-2.24609 0-3.75977 1.51367-3.75977 3.71094 0 2.14844 1.51367 3.61328 3.75977 3.61328Z"/>
  </g>
  <g transform="matrix(0.2 0 0 0.2 281.506 1933)">
   <path d="m58.5449 14.5508c27.4902 0 49.8047-22.3145 49.8047-49.8047s-22.3145-49.8047-49.8047-49.8047-49.8047 22.3145-49.8047 49.8047 22.3145 49.8047 49.8047 49.8047Zm0-8.30078c-22.9492 0-41.5039-18.5547-41.5039-41.5039s18.5547-41.5039 41.5039-41.5039 41.5039 18.5547 41.5039 41.5039-18.5547 41.5039-41.5039 41.5039Zm4.05273-23.0957v-36.9141c0-2.49023-1.70898-4.19922-4.15039-4.19922-2.39258 0-4.05273 1.70898-4.05273 4.19922v36.9141c0 2.44141 1.66016 4.15039 4.05273 4.15039 2.44141 0 4.15039-1.66016 4.15039-4.15039Zm-22.5586-14.4043h36.9629c2.44141 0 4.15039-1.61133 4.15039-4.00391 0-2.44141-1.70898-4.15039-4.15039-4.15039h-36.9629c-2.49023 0-4.15039 1.70898-4.15039 4.15039 0 2.39258 1.66016 4.00391 4.15039 4.00391Z"/>
  </g>
  <g transform="matrix(0.2 0 0 0.2 304.924 1933)">
   <path d="m74.8535 28.3203c35.1074 0 63.623-28.4668 63.623-63.5742s-28.5156-63.623-63.623-63.623-63.5742 28.5156-63.5742 63.623 28.4668 63.5742 63.5742 63.5742Zm0-9.08203c-30.127 0-54.4922-24.3652-54.4922-54.4922s24.3652-54.4922 54.4922-54.4922 54.4922 24.3652 54.4922 54.4922-24.3652 54.4922-54.4922 54.4922Zm4.44336-30.3223v-48.4863c0-2.73438-1.85547-4.63867-4.54102-4.63867-2.58789 0-4.44336 1.9043-4.44336 4.63867v48.4863c0 2.68555 1.85547 4.58984 4.44336 4.58984 2.68555 0 4.54102-1.85547 4.54102-4.58984Zm-28.7109-19.7754h48.4863c2.68555 0 4.58984-1.80664 4.58984-4.39453 0-2.73438-1.85547-4.58984-4.58984-4.58984h-48.4863c-2.73438 0-4.58984 1.85547-4.58984 4.58984 0 2.58789 1.85547 4.39453 4.58984 4.39453Z"/>
  </g>
  <text style="stroke:none;fill:black;font-family:sans-serif;font-size:13;font-weight:bold;" transform="matrix(1 0 0 1 263 1953)">Design Variations</text>
  <text style="stroke:none;fill:black;font-family:sans-serif;font-size:13;" transform="matrix(1 0 0 1 263 1971)">Symbols are supported in up to nine weights and three scales.</text>
  <text style="stroke:none;fill:black;font-family:sans-serif;font-size:13;" transform="matrix(1 0 0 1 263 1989)">For optimal layout with text and other symbols, vertically align</text>
  <text style="stroke:none;fill:black;font-family:sans-serif;font-size:13;" transform="matrix(1 0 0 1 263 2007)">symbols with the adjacent text.</text>
  <line style="fill:none;stroke:#00AEEF;stroke-width:0.5;opacity:1.0;" x1="776" x2="776" y1="1919" y2="1933"/>
  <g transform="matrix(0.2 0 0 0.2 776 1933)">
   <path d="m16.5527 0.78125c2.58789 0 3.85742-0.976562 4.78516-3.71094l20.5566-57.5195h0.244141l20.6055 57.5195c0.927734 2.73438 2.19727 3.71094 4.73633 3.71094 2.58789 0 4.24805-1.5625 4.24805-4.00391 0-0.830078-0.146484-1.61133-0.537109-2.63672l-22.9004-60.9863c-1.12305-2.97852-3.125-4.49219-6.25-4.49219-3.02734 0-5.07812 1.46484-6.15234 4.44336l-22.9004 61.084c-0.390625 1.02539-0.537109 1.80664-0.537109 2.63672 0 2.44141 1.5625 3.95508 4.10156 3.95508Zm10.2051-20.9473h30.6641c2.00195 0 3.66211-1.66016 3.66211-3.66211 0-2.05078-1.66016-3.66211-3.66211-3.66211h-30.6641c-2.00195 0-3.66211 1.61133-3.66211 3.66211 0 2.00195 1.66016 3.66211 3.66211 3.66211Z"/>
  </g>
  <line style="fill:none;stroke:#00AEEF;stroke-width:0.5;opacity:1.0;" x1="792.836" x2="792.836" y1="1919" y2="1933"/>
  <text style="stroke:none;fill:black;font-family:sans-serif;font-size:13;font-weight:bold;" transform="matrix(1 0 0 1 776 1953)">Margins</text>
  <text style="stroke:none;fill:black;font-family:sans-serif;font-size:13;" transform="matrix(1 0 0 1 776 1971)">Leading and trailing margins on the left and right side of each symbol</text>
  <text style="stroke:none;fill:black;font-family:sans-serif;font-size:13;" transform="matrix(1 0 0 1 776 1989)">can be adjusted by modifying the x-location of the margin guidelines.</text>
  <text style="stroke:none;fill:black;font-family:sans-serif;font-size:13;" transform="matrix(1 0 0 1 776 2007)">Modifications are automatically applied proportionally to all</text>
  <text style="stroke:none;fill:black;font-family:sans-serif;font-size:13;" transform="matrix(1 0 0 1 776 2025)">scales and weights.</text>
  <g transform="matrix(0.2 0 0 0.2 1289 1933)">
   <path d="m14.209 13.1348 7.86133 7.86133c4.29688 4.39453 9.32617 4.10156 13.8672-1.02539l60.6934-68.2129-4.88281-4.88281-60.2539 67.6758c-1.80664 1.95312-3.4668 2.44141-5.81055 0.0976562l-5.17578-5.12695c-2.29492-2.29492-1.80664-3.95508 0.195312-5.81055l67.4805-62.1582-4.88281-4.83398-68.0664 62.5977c-4.98047 4.58984-5.32227 9.47266-1.02539 13.8184Zm44.873-97.4609c-2.05078 2.00195-2.24609 4.88281-1.07422 6.78711 1.12305 1.80664 3.4668 3.02734 6.5918 2.24609 5.85938-1.66016 12.5977-2.39258 18.8965 0.927734l-2.68555 7.12891c-1.61133 4.00391-0.732422 6.88477 1.70898 9.42383l10.2539 10.3027c2.34375 2.39258 4.54102 2.44141 7.08008 1.95312l4.44336-0.732422 2.58789 2.53906-0.195312 2.24609c-0.0976562 2.29492 0.537109 4.29688 2.7832 6.49414l3.36914 3.32031c2.29492 2.29492 5.51758 2.49023 7.8125 0.195312l12.9883-13.0371c2.29492-2.34375 2.14844-5.37109-0.195312-7.66602l-3.41797-3.41797c-2.19727-2.19727-4.05273-3.02734-6.34766-2.88086l-2.34375 0.244141-2.44141-2.44141 1.02539-4.6875c0.634766-2.73438-0.244141-4.98047-2.88086-7.61719l-11.2793-11.1816c-12.9395-12.8418-35.5957-11.0352-46.6797-0.146484Zm7.08008 2.05078c8.78906-6.39648 25.9766-5.66406 33.6914 1.95312l12.3047 12.207c1.02539 1.02539 1.2207 1.80664 0.927734 3.32031l-1.46484 6.64062 6.73828 6.68945 4.39453-0.244141c1.12305-0.0488281 1.51367 0.0488281 2.34375 0.878906l2.53906 2.49023-10.8398 10.8398-2.49023-2.49023c-0.830078-0.878906-0.976562-1.2207-0.927734-2.39258l0.292969-4.3457-6.68945-6.73828-6.83594 1.17188c-1.41602 0.292969-2.05078 0.195312-3.17383-0.878906l-8.93555-8.88672c-1.07422-1.02539-1.17188-1.70898-0.488281-3.36914l4.58984-11.4746c-6.10352-6.34766-17.041-7.51953-25.5859-4.58984-0.683594 0.244141-0.927734-0.390625-0.390625-0.78125Z"/>
  </g>
  <text style="stroke:none;fill:black;font-family:sans-serif;font-size:13;font-weight:bold;" transform="matrix(1 0 0 1 1289 1953)">Exporting</text>
  <text style="stroke:none;fill:black;font-family:sans-serif;font-size:13;" transform="matrix(1 0 0 1 1289 1971)">Symbols should be outlined when exporting to ensure the</text>
  <text style="stroke:none;fill:black;font-family:sans-serif;font-size:13;" transform="matrix(1 0 0 1 1289 1989)">design is preserved when submitting to Xcode.</text>
  <text id="template-version" style="stroke:none;fill:black;font-family:sans-serif;font-size:13;text-anchor:end;" transform="matrix(1 0 0 1 3036 1933)">Template v.7.0</text>
  <text style="stroke:none;fill:black;font-family:sans-serif;font-size:13;text-anchor:end;" transform="matrix(1 0 0 1 3036 1951)">Requires Xcode 17 or greater</text>
  <text id="descriptive-name" style="stroke:none;fill:black;font-family:sans-serif;font-size:13;text-anchor:end;" transform="matrix(1 0 0 1 3036 1969)">Generated from viewfinder</text>
  <text style="stroke:none;fill:black;font-family:sans-serif;font-size:13;text-anchor:end;" transform="matrix(1 0 0 1 3036 1987)">Typeset at 100.0 points</text>
  <text style="stroke:none;fill:black;font-family:sans-serif;font-size:13;" transform="matrix(1 0 0 1 263 726)">Small</text>
  <text style="stroke:none;fill:black;font-family:sans-serif;font-size:13;" transform="matrix(1 0 0 1 263 1156)">Medium</text>
  <text style="stroke:none;fill:black;font-family:sans-serif;font-size:13;" transform="matrix(1 0 0 1 263 1586)">Large</text>
 </g>
 <g id="Guides">
  <g id="H-reference" style="fill:#27AAE1;stroke:none;" transform="matrix(1 0 0 1 339 696)">
   <path d="M0.993654 0L3.63775 0L29.3281-67.1323L30.0303-67.1323L30.0303-70.459L28.1226-70.459ZM11.6885-24.4799L46.9815-24.4799L46.2315-26.7285L12.4385-26.7285ZM55.1196 0L57.7637 0L30.6382-70.459L29.4326-70.459L29.4326-67.1323Z"/>
  </g>
  <line id="Baseline-S" style="fill:none;stroke:#27AAE1;opacity:1;stroke-width:0.5;" x1="263" x2="3036" y1="696" y2="696"/>
  <line id="Capline-S" style="fill:none;stroke:#27AAE1;opacity:1;stroke-width:0.5;" x1="263" x2="3036" y1="625.541" y2="625.541"/>
  <g id="H-reference" style="fill:#27AAE1;stroke:none;" transform="matrix(1 0 0 1 339 1126)">
   <path d="M0.993654 0L3.63775 0L29.3281-67.1323L30.0303-67.1323L30.0303-70.459L28.1226-70.459ZM11.6885-24.4799L46.9815-24.4799L46.2315-26.7285L12.4385-26.7285ZM55.1196 0L57.7637 0L30.6382-70.459L29.4326-70.459L29.4326-67.1323Z"/>
  </g>
  <line id="Baseline-M" style="fill:none;stroke:#27AAE1;opacity:1;stroke-width:0.5;" x1="263" x2="3036" y1="1126" y2="1126"/>
  <line id="Capline-M" style="fill:none;stroke:#27AAE1;opacity:1;stroke-width:0.5;" x1="263" x2="3036" y1="1055.54" y2="1055.54"/>
  <g id="H-reference" style="fill:#27AAE1;stroke:none;" transform="matrix(1 0 0 1 339 1556)">
   <path d="M0.993654 0L3.63775 0L29.3281-67.1323L30.0303-67.1323L30.0303-70.459L28.1226-70.459ZM11.6885-24.4799L46.9815-24.4799L46.2315-26.7285L12.4385-26.7285ZM55.1196 0L57.7637 0L30.6382-70.459L29.4326-70.459L29.4326-67.1323Z"/>
  </g>
  <line id="Baseline-L" style="fill:none;stroke:#27AAE1;opacity:1;stroke-width:0.5;" x1="263" x2="3036" y1="1556" y2="1556"/>
  <line id="Capline-L" style="fill:none;stroke:#27AAE1;opacity:1;stroke-width:0.5;" x1="263" x2="3036" y1="1485.54" y2="1485.54"/>
  <line id="right-margin-Black-S" style="fill:none;stroke:#00AEEF;stroke-width:0.5;opacity:1.0;" x1="2983.25" x2="2983.25" y1="600.785" y2="720.121"/>
  <line id="left-margin-Black-S" style="fill:none;stroke:#00AEEF;stroke-width:0.5;opacity:1.0;" x1="2883.55" x2="2883.55" y1="600.785" y2="720.121"/>
  <line id="right-margin-Regular-S" style="fill:none;stroke:#00AEEF;stroke-width:0.5;opacity:1.0;" x1="1497.57" x2="1497.57" y1="600.785" y2="720.121"/>
  <line id="left-margin-Regular-S" style="fill:none;stroke:#00AEEF;stroke-width:0.5;opacity:1.0;" x1="1402.11" x2="1402.11" y1="600.785" y2="720.121"/>
  <line id="right-margin-Ultralight-S" style="fill:none;stroke:#00AEEF;stroke-width:0.5;opacity:1.0;" x1="604.58" x2="604.58" y1="600.785" y2="720.121"/>
  <line id="left-margin-Ultralight-S" style="fill:none;stroke:#00AEEF;stroke-width:0.5;opacity:1.0;" x1="514.842" x2="514.842" y1="600.785" y2="720.121"/>
 </g>
 <g id="Symbols">
  <g id="Black-S" transform="matrix(1 0 0 1 2883.55 696)">
   <path class="monochrome-0 multicolor-0:tintColor hierarchical-0:secondary SFSymbolsPreviewWireframe" d="M16.8457-43.9453C21.4355-43.9453 23.9258-46.4844 23.9258-51.0742L23.9258-57.8125C23.9258-60.2539 25-61.1328 27.2461-61.1328L33.9844-61.1328C38.623-61.1328 41.1133-63.623 41.1133-68.2129C41.1133-72.8027 38.623-75.293 33.9844-75.293L25-75.293C15.4297-75.293 9.76562-69.6289 9.76562-60.0586L9.76562-51.0742C9.76562-46.4355 12.2559-43.9453 16.8457-43.9453ZM82.8613-43.9453C87.4512-43.9453 89.9414-46.4355 89.9414-51.0742L89.9414-60.0586C89.9414-69.6289 84.2773-75.293 74.707-75.293L65.7227-75.293C61.084-75.293 58.5938-72.8027 58.5938-68.2129C58.5938-63.623 61.1328-61.1328 65.7227-61.1328L72.4609-61.1328C74.707-61.1328 75.7812-60.2539 75.7812-57.8125L75.7812-51.0742C75.7812-46.4355 78.2715-43.9453 82.8613-43.9453ZM25 4.88281L33.9844 4.88281C38.623 4.88281 41.1133 2.39258 41.1133-2.19727C41.1133-6.78711 38.5742-9.27734 33.9844-9.27734L27.2461-9.27734C25-9.27734 23.9258-10.1562 23.9258-12.5977L23.9258-19.3359C23.9258-23.9746 21.4355-26.4648 16.8457-26.4648C12.2559-26.4648 9.76562-23.9746 9.76562-19.3359L9.76562-10.3516C9.76562-0.78125 15.4297 4.88281 25 4.88281ZM65.7227 4.88281L74.707 4.88281C84.2773 4.88281 89.9414-0.78125 89.9414-10.3516L89.9414-19.3359C89.9414-23.9746 87.4512-26.4648 82.8613-26.4648C78.2715-26.4648 75.7812-23.9258 75.7812-19.3359L75.7812-12.5977C75.7812-10.1562 74.707-9.27734 72.4609-9.27734L65.7227-9.27734C61.084-9.27734 58.5938-6.78711 58.5938-2.19727C58.5938 2.39258 61.084 4.88281 65.7227 4.88281Z"/>
   <path class="monochrome-1 multicolor-1:tintColor hierarchical-1:primary SFSymbolsPreviewWireframe" d="M23.8912-39.9696L29.9453-39.9696L29.9453-47.7919C29.9453-48.066 30.2014-48.3085 30.5025-48.3085L46.2377-48.3085C46.5403-48.3085 46.8253-48.066 46.8253-47.7919L46.8253-31.2978L52.8794-31.2978L52.8794-48.142C52.8794-51.7967 50.3823-54.3337 46.7539-54.3337L29.9879-54.3337C26.3594-54.3337 23.8912-51.7967 23.8912-48.142ZM76.4186-39.9696L76.4186-48.142C76.4186-51.7967 73.9242-54.3337 70.2956-54.3337L52.922-54.3337C49.2936-54.3337 46.8253-51.7967 46.8253-48.142L46.8253-31.2978L52.8794-31.2978L52.8794-47.7919C52.8794-48.066 53.1385-48.3085 53.4382-48.3085L69.781-48.3085C70.1372-48.3085 70.369-48.1238 70.369-47.7919L70.369-39.9696ZM17.5174-26.5303C17.5174-22.8019 20.0036-20.2532 23.6622-20.2532L76.0124-20.2532C79.6725-20.2532 82.1874-22.8019 82.1874-26.5303L82.1874-38.6841C82.1874-42.411 79.6725-44.9915 76.0124-44.9915L73.4164-44.9915C69.7563-44.9915 67.2729-42.411 67.2729-38.6841L67.2729-35.645L32.4317-35.645L32.4317-38.6841C32.4317-42.411 29.9196-44.9915 26.2595-44.9915L23.6622-44.9915C20.0036-44.9915 17.5174-42.411 17.5174-38.6841ZM23.561-26.5851L23.561-38.6292C23.561-38.8567 23.6371-38.9679 23.8831-38.9679L26.0097-38.9679C26.283-38.9679 26.3882-38.8567 26.3882-38.6292L26.3882-29.6228L73.3164-29.6228L73.3164-38.6292C73.3164-38.8567 73.3928-38.9679 73.666-38.9679L75.7929-38.9679C76.0385-38.9679 76.1438-38.8567 76.1438-38.6292L76.1438-26.5851C76.1438-26.3591 76.0385-26.2724 75.7929-26.2724L23.8831-26.2724C23.6371-26.2724 23.561-26.3591 23.561-26.5851ZM26.2524-16.1223L27.614-16.1223C29.2769-16.1223 30.4564-17.3322 30.4564-18.9646L30.4564-24.5257L23.3796-24.5257L23.3796-18.9646C23.3796-17.3322 24.5941-16.1223 26.2524-16.1223ZM72.1806-16.1223L73.5393-16.1223C75.1976-16.1223 76.4118-17.3322 76.4118-18.9646L76.4118-24.5257L69.3351-24.5257L69.3351-18.9646C69.3351-17.3322 70.5148-16.1223 72.1806-16.1223Z"/>
  </g>
  <g id="Regular-S" transform="matrix(1 0 0 1 1402.11 696)">
   <path class="monochrome-0 multicolor-0:tintColor hierarchical-0:secondary SFSymbolsPreviewWireframe" d="M13.2812-48.2422C15.5762-48.2422 16.7969-49.5117 16.7969-51.8066L16.7969-60.5469C16.7969-64.209 18.7988-66.1133 22.3145-66.1133L31.2988-66.1133C33.5938-66.1133 34.8633-67.3828 34.8633-69.6289C34.8633-71.9238 33.5938-73.1934 31.2988-73.1934L22.2168-73.1934C13.916-73.1934 9.76562-69.0918 9.76562-60.8887L9.76562-51.8066C9.76562-49.5117 11.0352-48.2422 13.2812-48.2422ZM82.1777-48.2422C84.4727-48.2422 85.6934-49.5117 85.6934-51.8066L85.6934-60.8887C85.6934-69.0918 81.5918-73.1934 73.2422-73.1934L64.1602-73.1934C61.8652-73.1934 60.5957-71.9238 60.5957-69.6289C60.5957-67.3828 61.8652-66.1133 64.1602-66.1133L73.1445-66.1133C76.6602-66.1133 78.6621-64.209 78.6621-60.5469L78.6621-51.8066C78.6621-49.5117 79.9316-48.2422 82.1777-48.2422ZM22.2168 2.7832L31.2988 2.7832C33.5938 2.7832 34.8633 1.51367 34.8633-0.732422C34.8633-3.02734 33.5938-4.29688 31.2988-4.29688L22.3145-4.29688C18.7988-4.29688 16.7969-6.20117 16.7969-9.86328L16.7969-18.5547C16.7969-20.8984 15.5273-22.168 13.2812-22.168C10.9863-22.168 9.76562-20.8984 9.76562-18.5547L9.76562-9.52148C9.76562-1.31836 13.916 2.7832 22.2168 2.7832ZM64.1602 2.7832L73.2422 2.7832C81.5918 2.7832 85.6934-1.31836 85.6934-9.52148L85.6934-18.5547C85.6934-20.8984 84.4238-22.168 82.1777-22.168C79.8828-22.168 78.6621-20.8984 78.6621-18.5547L78.6621-9.86328C78.6621-6.20117 76.6602-4.29688 73.1445-4.29688L64.1602-4.29688C61.8652-4.29688 60.5957-3.02734 60.5957-0.732422C60.5957 1.51367 61.8652 2.7832 64.1602 2.7832Z"/>
   <path class="monochrome-1 multicolor-1:tintColor hierarchical-1:primary SFSymbolsPreviewWireframe" d="M22.6483-40.4088L27.3691-40.4088L27.3691-47.6754C27.3691-48.261 27.7971-48.667 28.3974-48.667L44.3433-48.667C44.9296-48.667 45.3697-48.261 45.3697-47.6754L45.3697-31.7133L50.0905-31.7133L50.0905-47.852C50.0905-51.1407 47.8995-53.3757 44.6622-53.3757L28.0645-53.3757C24.8273-53.3757 22.6483-51.1407 22.6483-47.852ZM73.3709-40.4088L73.3709-47.852C73.3709-51.1407 71.1814-53.3757 67.9442-53.3757L50.7859-53.3757C47.5487-53.3757 45.3697-51.1407 45.3697-47.852L45.3697-31.7133L50.0905-31.7133L50.0905-47.6754C50.0905-48.261 50.5201-48.667 51.1049-48.667L67.6112-48.667C68.2342-48.667 68.6378-48.2853 68.6378-47.6754L68.6378-40.4088ZM16.4094-26.7204C16.4094-23.4067 18.5981-21.1766 21.8515-21.1766L73.6106-21.1766C76.8503-21.1766 79.0509-23.4067 79.0509-26.7204L79.0509-38.5958C79.0509-41.8939 76.8503-44.1378 73.6106-44.1378L70.9925-44.1378C67.7528-44.1378 65.5657-41.8939 65.5657-38.5958L65.5657-34.8525L29.8945-34.8525L29.8945-38.5958C29.8945-41.8939 27.6953-44.1378 24.4557-44.1378L21.8515-44.1378C18.5981-44.1378 16.4094-41.8939 16.4094-38.5958ZM21.1392-26.7724L21.1392-38.5437C21.1392-39.0887 21.4797-39.4446 22.0459-39.4446L24.2198-39.4446C24.812-39.4446 25.1647-39.0887 25.1647-38.5437L25.1647-30.1455L70.2956-30.1455L70.2956-38.5437C70.2956-39.0887 70.6361-39.4446 71.2282-39.4446L73.4021-39.4446C73.9684-39.4446 74.3211-39.0887 74.3211-38.5437L74.3211-26.7724C74.3211-26.2135 73.9684-25.882 73.4021-25.882L22.0459-25.882C21.4797-25.882 21.1392-26.2135 21.1392-26.7724ZM24.3888-17.1111L25.7045-17.1111C27.0303-17.1111 27.9554-18.0343 27.9554-19.3619L27.9554-24.2271L22.1103-24.2271L22.1103-19.3619C22.1103-18.0343 23.0507-17.1111 24.3888-17.1111ZM69.7939-17.1111L71.108-17.1111C72.446-17.1111 73.3863-18.0343 73.3863-19.3619L73.3863-24.2271L67.5411-24.2271L67.5411-19.3619C67.5411-18.0343 68.4663-17.1111 69.7939-17.1111Z"/>
  </g>
  <g id="Ultralight-S" transform="matrix(1 0 0 1 514.842 696)">
   <path class="monochrome-0 multicolor-0:tintColor hierarchical-0:secondary SFSymbolsPreviewWireframe" d="M10.8745-48.5146C11.5801-48.5146 11.9834-48.9668 11.9834-49.6724L11.9834-60.1836C11.9834-65.3896 14.6665-68.0659 19.8623-68.0659L30.3906-68.0659C31.0962-68.0659 31.503-68.4726 31.503-69.1748C31.503-69.8804 31.0962-70.2871 30.3906-70.2871L19.7647-70.2871C13.2349-70.2871 9.76562-66.8213 9.76562-60.2983L9.76562-49.6724C9.76562-48.9668 10.1724-48.5146 10.8745-48.5146ZM78.8628-48.5146C79.6138-48.5146 79.9717-48.9668 79.9717-49.6724L79.9717-60.2983C79.9717-66.7305 76.5513-70.2871 69.9727-70.2871L59.3921-70.2871C58.6411-70.2871 58.2344-69.8804 58.2344-69.1748C58.2344-68.4726 58.6411-68.0659 59.3921-68.0659L69.875-68.0659C74.8892-68.0659 77.7993-65.3896 77.7993-60.1836L77.7993-49.6724C77.7993-48.9668 78.1607-48.5146 78.8628-48.5146ZM19.7647-0.0322044L30.3906-0.0322044C31.0962-0.0322044 31.503-0.438949 31.503-1.14111C31.503-1.84669 31.0962-2.25343 30.3906-2.25343L19.8623-2.25343C14.6665-2.25343 11.9834-4.9297 11.9834-10.1357L11.9834-20.6435C11.9834-21.3525 11.5767-21.8047 10.8745-21.8047C10.169-21.8047 9.76562-21.3525 9.76562-20.6435L9.76562-10.021C9.76562-3.49803 13.2349-0.0322044 19.7647-0.0322044ZM59.3921-0.0322044L69.9727-0.0322044C76.5513-0.0322044 79.9717-3.58885 79.9717-10.021L79.9717-20.6435C79.9717-21.3525 79.6104-21.8047 78.8628-21.8047C78.1572-21.8047 77.7993-21.3525 77.7993-20.6435L77.7993-10.1357C77.7993-4.9297 74.8892-2.25343 69.875-2.25343L59.3921-2.25343C58.6411-2.25343 58.2344-1.84669 58.2344-1.14111C58.2344-0.438949 58.6411-0.0322044 59.3921-0.0322044Z"/>
   <path class="monochrome-1 multicolor-1:tintColor hierarchical-1:primary SFSymbolsPreviewWireframe" d="M22.675-40.9363L24.721-40.9363L24.721-46.5103C24.721-47.7864 25.4984-48.6258 26.645-48.6258L41.9324-48.6258C43.069-48.6258 43.8464-47.7864 43.8464-46.5103L43.8464-32.1486L45.8924-32.1486L45.8924-46.5015C45.8924-49.0152 44.3279-50.6718 41.9738-50.6718L26.5936-50.6718C24.2395-50.6718 22.675-49.0152 22.675-46.5015ZM67.2745-40.9363L67.2745-46.5015C67.2745-49.0152 65.6954-50.6718 63.3414-50.6718L47.7651-50.6718C45.411-50.6718 43.8464-49.0152 43.8464-46.5015L43.8464-32.1486L45.8924-32.1486L45.8924-46.5103C45.8924-47.7864 46.6554-48.6258 47.8065-48.6258L63.29-48.6258C64.451-48.6258 65.2038-47.7864 65.2038-46.5103L65.2038-40.9363ZM17.4493-27.0979C17.4493-24.9396 18.9275-23.4802 21.1376-23.4802L68.6113-23.4802C70.8114-23.4802 72.2897-24.9396 72.2897-27.0979L72.2897-38.6671C72.2897-40.8298 70.8114-42.2748 68.6113-42.2748L65.9171-42.2748C63.7168-42.2748 62.2242-40.8298 62.2242-38.6671L62.2242-33.3341L27.5147-33.3341L27.5147-38.6671C27.5147-40.8298 26.0221-42.2748 23.8219-42.2748L21.1376-42.2748C18.9275-42.2748 17.4493-40.8298 17.4493-38.6671ZM19.5485-27.118L19.5485-38.6471C19.5485-39.5866 20.2151-40.2244 21.2078-40.2244L23.7461-40.2244C24.7489-40.2244 25.4155-39.5866 25.4155-38.6471L25.4155-31.2737L64.3235-31.2737L64.3235-38.6471C64.3235-39.5866 64.99-40.2244 65.9928-40.2244L68.5309-40.2244C69.5238-40.2244 70.1904-39.5866 70.1904-38.6471L70.1904-27.118C70.1904-26.1684 69.5238-25.555 68.5309-25.555L21.2078-25.555C20.2151-25.555 19.5485-26.1684 19.5485-27.118ZM23.4264-19.8072L24.3938-19.8072C25.2809-19.8072 25.8119-20.3282 25.8119-21.2253L25.8119-24.5969L22.0127-24.5969L22.0127-21.2253C22.0127-20.3282 22.5149-19.8072 23.4264-19.8072ZM65.3309-19.8072L66.3126-19.8072C67.2238-19.8072 67.7263-20.3282 67.7263-21.2253L67.7263-24.5969L63.9269-24.5969L63.9269-21.2253C63.9269-20.3282 64.4579-19.8072 65.3309-19.8072Z"/>
  </g>
 </g>
</svg>
